<?xml version="1.0" encoding="utf-8"?>
<!-- Generator: Adobe Illustrator 23.0.1, SVG Export Plug-In . SVG Version: 6.00 Build 0)  -->
<svg version="1.1" id="Warstwa_1" xmlns="http://www.w3.org/2000/svg" xmlns:xlink="http://www.w3.org/1999/xlink" x="0px" y="0px"
	 viewBox="0 0 384.3 61.6" style="enable-background:new 0 0 384.3 61.6;" xml:space="preserve">
<style type="text/css">
	.st0{fill:#BCFE2F;}
	.st1{fill:#FFFFFF;}
</style>
<title>Bez nazwy-1</title>
<rect class="st0" width="39.9" height="12.3"/>
<rect y="24.6" class="st0" width="39.9" height="12.3"/>
<rect y="49.3" class="st0" width="39.9" height="12.3"/>
<rect x="195.4" class="st1" width="12.3" height="61.6"/>
<polygon class="st1" points="237.2,61.6 237.2,5 249.6,0 249.6,61.6 "/>
<rect x="178.3" class="st1" width="46.7" height="12.3"/>
<polygon class="st0" points="107.2,0 85.4,31.8 78,42.7 65,61.6 50.1,61.6 70.5,31.8 78,20.9 92.3,0 "/>
<polygon class="st0" points="105.9,61.6 90.9,61.6 82,48.5 96.9,48.5 "/>
<polygon class="st0" points="85.4,31.8 78,42.7 70.5,31.8 48.7,0 63.7,0 78,20.9 "/>
<polygon class="st1" points="356.1,19.1 350,0 340.5,26.1 327.6,61.6 340.7,61.6 350.5,34.8 "/>
<polygon class="st1" points="355.6,18.9 361.8,0 371.4,26.1 384.3,61.6 371.2,61.6 361.4,34.8 "/>
<path class="st1" d="M141.9,0c-17,0-30.8,13.8-30.8,30.8s13.8,30.8,30.8,30.8c17,0,30.8-13.8,30.8-30.8c0,0,0,0,0,0
	C172.7,13.8,158.9,0,141.9,0z M141.9,51.2c-11.3,0-20.4-9.1-20.4-20.4s9.1-20.4,20.4-20.4c11.3,0,20.4,9.1,20.4,20.4l0,0
	C162.3,42.1,153.1,51.2,141.9,51.2z"/>
<path class="st1" d="M296.3,10.4c7.3,0,14,3.9,17.6,10.1l7.9-6.9l0.1,0C312.2-0.5,293.1-4.3,279,5.3s-17.8,28.7-8.3,42.8
	c9.5,14.1,28.7,17.8,42.8,8.3c3.2-2.1,5.9-4.9,8.1-8l-7.9-7c-5.8,9.6-18.3,12.7-28,6.9s-12.7-18.3-6.9-28
	C282.5,14.2,289.1,10.4,296.3,10.4L296.3,10.4z"/>
<polygon class="st1" points="350,0 361.8,0 358.4,19.6 355.1,19.1 350,1.1 "/>
</svg>
